<svg xmlns="http://www.w3.org/2000/svg" width="22" height="18.505" viewBox="0 0 22 18.505">
  <path id="Path_5" data-name="Path 5" d="M6.917,7.833H8.448l2.295,10.355a3.289,3.289,0,0,0-1.871,3.042,3.133,3.133,0,0,0,2.962,3.275H23.988a.917.917,0,1,0,0-1.833H11.833A1.332,1.332,0,0,1,10.7,21.231a1.332,1.332,0,0,1,1.128-1.442H23.988a.917.917,0,0,0,.863-.606l3.1-8.591a.917.917,0,0,0-.863-1.227H10.665l-.586-2.646A.916.916,0,0,0,9.184,6H6.917a.917.917,0,0,0,0,1.833ZM25.779,11.2l-2.435,6.758H12.568l-1.5-6.758H25.779Z" transform="translate(-6 -6)"/>
</svg>
